<?xml version="1.0" encoding="utf-8"?>
<!-- Generator: Adobe Illustrator 27.9.0, SVG Export Plug-In . SVG Version: 6.00 Build 0)  -->
<svg version="1.1" id="Layer_1" xmlns="http://www.w3.org/2000/svg" xmlns:xlink="http://www.w3.org/1999/xlink" x="0px" y="0px"
	 viewBox="0 0 1280 1024" style="enable-background:new 0 0 1280 1024;" xml:space="preserve">
<style type="text/css">
	.st0{fill:#122731;}
	.st1{fill:#04141D;}
</style>
<path class="st0" d="M1025.1,519.2c0.1,4,0.2,8-0.1,12.7c-0.2,1.9,0,3.1,0.2,4.3c-0.6,12.4-1.1,24.7-1.9,37.1
	c-1.4,20-6.7,39.3-12,58.6c-11,39.8-29.5,75.8-54,108.9c-14.3,19.2-30.8,36.5-48.4,52.6c-47.6,43.7-103,72.5-166.3,85.3
	c-13.9,2.8-28,4.5-42.1,5.4c-16.1,1.1-32.3,1.8-48.3,0.8c-27.7-1.8-54.8-7.1-81.2-15.8c-39.8-13.2-76.7-32-110.1-57.3
	c-20.6-15.6-38.8-33.9-55.6-53.5c-30.3-35.1-52.6-74.8-65.8-119.2c-5.9-20-11.2-40.4-14.4-61c-2.7-16.9-2.6-34.3-2.5-51.4
	c0-20.6,3.5-40.9,7.8-61c5.2-23.8,12.4-47,22.4-69.3c10.8-24.2,24.6-46.6,40.3-67.9c14.1-19.1,30.2-36.3,47.7-52.2
	c28.9-26.3,61.2-47.6,97.2-63.1c24.8-10.7,50.4-18.9,77-24c22.4-4.3,44.9-5.8,67.6-5.2c51.6,1.5,100.2,15.2,146.1,38.3
	c28.9,14.5,54.9,33.1,78.9,54.7c36.1,32.4,64.5,70.4,84.9,114.4c13.3,28.8,22.8,58.8,27.8,90.1c1.8,11,2.8,22.1,4.1,34
	C1024.4,517.3,1024.7,518.2,1025.1,519.2 M611.9,739.2c0,0-0.1,0,0,0.6c0.3,0.5,0.7,0.9,1.1,1.3c0,0-0.1,0,0,0.6
	c0.3,0.5,0.7,0.9,1.2,1.9c0.1,0.1,0.2,0.3,0.5,0.9c0.4,0.3,0.8,0.5,1.2,0.7c0,0-0.1,0,0,0.7c0.7,1.1,1.5,2.1,2.2,3.2
	c0,0,0,0,0.1,0.5c0.3,0.2,0.5,0.5,0.9,1.3c0.4,0.7,0.9,1.3,1.5,2.6c0.4,0.6,0.9,1.2,1.5,2.1c0,0,0.2,0.3,0.4,0.9
	c0.5,0.5,1.1,1,1.6,1.5c0,0,0.1,0,0.3,0.6c9.1,12.6,18.7,24.9,31.6,36.1c0-10.7,0-20.2,0.1-30.5c0-0.7-0.1-1.5,0-2.7
	c0-0.2-0.1-0.3,0-1.5c0-19.3-0.1-38.6,0-58.9c-0.1-3.7-0.1-7.4-0.2-12c-1.1-0.4-2.3-1.1-3.4-1.1c-5.1-0.1-10.3,0-16.1,0
	c-0.4,0-0.9,0.1-2.2-0.1c-3,0-6,0.1-9.7,0.1c-0.5,0-0.9,0-2.2-0.1c-1.4,0.1-2.7,0.1-4.8,0.1c-0.5,0-0.9,0-2.3-0.1
	c-1.7,0.1-3.4,0.1-5.8,0.1c-0.4,0-0.9,0-2.2-0.1c-6.8,0-13.7,0-21.5,0c1.4,3.2,2.5,5.6,3.6,8.6c1.6,3.5,3.1,6.9,4.9,11
	c0.9,1.8,1.9,3.6,2.8,5.3c0,0-0.1,0.1,0,0.7c0.7,1.1,1.3,2.2,2,3.3c0,0,0,0,0.1,0.6c0.3,0.5,0.7,0.9,1,2c0.3,0.5,0.6,1,0.9,2
	c0.3,0.4,0.7,0.9,1,1.4c0,0,0.1,0,0.2,0.6c0.9,1.4,1.9,2.9,3,4.8c0.1,0.3,0.4,0.5,0.8,1.2c0.3,0.5,0.7,1,1.1,1.4c0,0-0.1,0,0,0.6
	c0.3,0.3,0.6,0.6,0.8,1.1c0,0,0.2,0.2,0.2,0.8c0.3,0.2,0.5,0.4,0.8,0.5c0,0-0.1,0,0,0.6c0.3,0.5,0.7,0.9,1.1,1.3c0,0-0.1,0,0,0.6
	c0.3,0.5,0.7,0.9,1,1.4c0,0,0,0,0.1,0.5C611.4,738.9,611.6,739.1,611.9,739.2 M528,803.1c0,0,0,0,0.3,0.5c0.5,0.2,1.1,0.3,2.1,1
	c13.3,6,26.6,12.3,40.1,18c5.2,2.2,11,3.1,16.9,5.3c5.5,1.4,11.1,2.8,17.2,4.8c11.5,2.2,23.1,4.3,34.6,6.5c0.1-0.5,0.2-1.1,0.3-1.6
	c-1.7-0.4-3.4-0.8-5-1.2c-1.8-3.7-4.3-6.9-7-9.9c-6-6.5-12.2-12.9-18.6-19.9c-0.3-0.5-0.6-0.9-1.2-2c-1.5-1.5-3-3-4.9-5
	c-0.6-0.8-1.2-1.7-2-3.1c-0.9-1.2-1.8-2.3-3-3.9c-0.2-0.3-0.5-0.4-1-1c-0.2-0.3-0.4-0.5-0.8-1.2c-0.3-0.4-0.7-0.9-1-1.3
	c0,0,0,0-0.3-0.6c-1.2-1.5-2.4-3-3.9-5.1c-5.9-8.8-11.9-17.6-17.9-27.1c-1.9-2.8-3.7-5.7-5.8-9.2c-2.3-4.3-4.6-8.7-7.1-13.8
	c-6.1-14.4-12.2-28.8-18.3-43.7c-0.2-0.3-0.4-0.5-0.8-0.6c0,0,0,0.1-0.1-0.7c-1.6-0.7-3.3-2.3-4.8-2.1c-6.7,1-13.4,2.5-20.9,3.8
	c-7.4,2.4-14.8,4.7-22.1,7.2c-1.2,0.4-2.2,1.8-3.1,2.7c0,0-0.1,0-0.5,0c0,0-0.4,0-1.2,0c-6.4,3.3-12.9,6.7-20,10.2
	c-4.7,3.3-9.5,6.7-14.9,10.1c-4.1,3.5-8.2,6.9-12.7,10.8c2,2.3,3.7,4.2,5.7,6.7c7.6,8,15.2,16.1,22.9,24.1c1.4,1.4,3,2.5,4.6,3.7
	c6.4,4.8,13.2,9.1,19.1,14.4c9.9,8.9,21.1,15.7,33.3,21.7c0.2,0.3,0.5,0.4,1,0.9C527.4,802.8,527.7,803,528,803.1 M699.6,518.2
	c0.5-0.1,0.9-0.1,2-0.1c0.4,0.1,0.9,0.1,1.9,0.7c1.8-0.2,3.6-0.3,6.3-0.7c2.7,0.1,5.4,0.1,8.7,0.7c2.8-0.2,5.6-0.3,9.3-0.7
	c18,0,36.1,0.1,54.6,0.6c1.8-0.2,3.7-0.4,6.2-0.8c1.3-1.3,2.8-2.4,3.9-3.8c4.5-5.6,7.9-12.6,13.4-16.9c24.4-19,60.2-12.5,74.1,16.2
	c1.7,3.6,4,4.8,8.1,4.8c29.3-0.1,58.6,0,88.3,0.5c0.8-0.2,1.7-0.5,2.8-1.4c-1.2-12.6-0.9-25.6-3.9-37.8c-5.2-21-12-41.7-18.9-62.2
	c-2.5-7.5-7.4-14.3-11.3-22.1c-1.8-3.7-3.5-7.4-5.3-11c-1.4-2.9-3.1-2.8-5.4-0.6c-22.9,22.7-49.3,40.3-79.6,51.3
	c-14.3,5.2-29.2,8.8-44.6,13.2c-5.1,2-10.6,3.3-15.3,6.1c-6.2,3.7-8.8,10.4-11.1,17.1c-4.8,14.4-22.5,22.6-35.7,16.8
	c-11.7-5.2-19.2-15.7-18.1-27c1.1-11.4,6.1-22.1,21.8-26.7c2.4-0.7,5.1-2.2,6.4-4.1c3.9-6.1,7.6-12.4,10.7-18.9
	c4.9-10.2-4.9-21.2-14.7-21c-8.2,0.1-14,4.5-18.3,11.1c-4.8,7.3-8.9,15.1-16.8,20.7c-7.1,2.6-14.2,5.1-21.9,7.9c0,0.3,0,1.7-0.2,4.1
	c0,27.6,0.1,55.3,0,83.5c0.3,0.2,0.6,0.5,1.1,1l0.4,0.1C698.6,518.7,699,518.4,699.6,518.2 M502,284.2c0,0,0,0-0.7,0.1
	c-1.1,0.7-2.1,1.3-3.3,2c0,0,0,0.1-0.6,0.3c-4.2,3.5-8.4,7-12.5,10.5c0,0,0,0-0.7,0.1c-1,0.5-2.2,0.8-3,1.6
	c-12.2,11.9-24.4,23.8-36.4,35.8c-3.9,3.9-3.2,5.4,2.2,7.4c2.9,2.5,5.9,5,8.9,7.3c0,0,0,0.1,0.1,0.6c0.3,0.2,0.6,0.3,1.3,1
	c23.1,20,50.7,29.5,80.1,34.9c0.5-0.8,0.9-1.2,1-1.6c10.7-31.5,25.5-60.9,44.8-88c1.6-2.3,3-4.7,5-7.5c1.3-1.5,2.6-3,4.4-4.7
	c0.4-0.9,0.9-1.8,1.4-2.6c0,0-0.1,0,0.6-0.2c7.8-9.6,15.6-19.2,24-29c0.8-0.9,1.6-1.8,3-3.1c1.5-1.9,3-3.8,4.4-5.7
	c0,0-0.1,0,0.5,0.2c0.2-0.1,0.4-0.1,1.1-0.5c4.3-4.3,8.7-8.6,14-14c-16.8,1.7-31.3,5.6-45.7,10.2c0,0,0,0-0.8,0
	c-2.1,0.6-4.2,1.3-7,2c-3.9,1.3-7.8,2.6-11.8,3.9c-21,6.8-40.7,16.4-60.1,28.3c-1.8,1.3-3.6,2.6-5.8,4c-0.3,0.2-0.5,0.4-0.6,0.7
	c0,0,0,0-0.7,0.1c-1.8,1.6-3.5,3.2-5.2,4.9c0,0-0.1-0.1-0.7,0C502.9,283.5,502.4,283.8,502,284.2 M375.4,462.6
	c-0.1,0.9-0.3,1.7-0.8,3c-0.1,0.6-0.3,1.1-0.6,2.4c-0.3,1.4-0.5,2.9-0.9,5c0,0.5,0.1,0.9-0.6,1.8c-0.8,5.5-1.6,11-2.6,17.2
	c0,0.8,0.1,1.5-0.5,2.8c-0.5,4.7-1.2,9.3-1.5,14c-0.2,2.8-0.1,5.7,0,8.4c0,0,0,0.1,0.5,0.7c2.5,0.1,5,0.2,8.5,0.3c4,0,8-0.1,13,0
	c40.1,0,80.2,0,120.2,0.2c3.6,0,5.1-0.8,4.9-4.7c-0.2-6.1,0.1-12.2,0.7-18.9c0.4-5.1,0.9-10.2,1.9-15.8c0.4-3.9,0.8-7.8,1.3-12.1
	c0,0,0.1-0.4,0.7-0.9c0.9-6.4,1.8-12.8,3.1-19.9c0.4-2.9,0.8-5.9,1.8-9.1c0.8-3.6,1.7-7.2,2.5-10.8c-1.2-0.4-1.7-0.6-2.2-0.7
	c-18.3-1.8-35.7-7.1-52.4-14.7c-7.2-3.3-14.2-7.1-21.6-11.2c-11.7-8.5-23.4-17.1-35.2-25.7c-4.5,3.3-15.2,20.4-19.9,32.1
	c-0.2,0.8-0.2,1.6-0.5,2.3c-4.1,9.7-8.2,19.4-12.8,29.6c-0.9,2.8-1.7,5.7-2.6,9.1c0,0.4,0,0.8-0.6,1.7c-0.5,2.2-0.9,4.4-1.3,6.7
	c0,0,0,0-0.6,0.4c-0.5,2.2-1,4.4-1.5,6.6C375.9,462.1,375.9,462.1,375.4,462.6 M560.9,473.2c0,0,0-0.1-0.6,0.5
	c-0.5,5.2-1,10.3-1.4,15.5c0,0,0-0.1-0.7,0.5c-0.5,9.4-1,18.7-1.4,28.2c33.7,0,66.3,0,99.1,0c0-24.4,0-48.5,0.1-73.4
	c0-0.8,0-1.5,0-3.2c-0.1-3.4-0.1-6.7-0.2-10.9c-1.6-0.4-3.3-1.2-4.9-1.2c-23.9-0.1-47.9,0-71.8,0c-10.5,0-10.8,0.3-12.1,10.9
	c-0.1,0.7,0,1.3-0.2,2.5c-0.2,0.5-0.5,1-1.2,2c0,0.9-0.1,1.8-0.4,3.4c-0.9,4.4-1.8,8.8-2.9,13.9c0,0.7-0.1,1.5-0.4,3
	C561.5,467.7,561.2,470.4,560.9,473.2 M603,385.1c17.6,0,35.2,0,52.9,0c0-28.7,0-56.8,0.1-85.8c-0.1-3-0.1-6.1,0-10
	c0-4.5,0-9.1,0-15c-2.3,1.9-3.6,2.8-4.6,3.9c-5.8,6.3-11.9,12.4-17.3,19c-5,6-9.4,12.6-14.1,19c0,0,0,0-0.6,0.2
	c-0.8,1.3-1.5,2.5-2.9,4.2c-14.5,19.6-25.4,40.9-33.8,64.6c3-0.2,5.2-0.4,8-0.5c0.3,0,0.7,0,1.4,0.3l0.5,0.1c0,0,0.5-0.1,1.3-0.1
	c1.4,0,2.7,0,4.9,0.2C599.9,385.1,601,385.1,603,385.1 M515.2,574.1c0,0,0,0-0.1-1c-0.4-12.2-0.4-12.2-13.1-12c-38.4,0-76.7,0-116,0
	c-5,0-10-0.2-14.9,0.1c-1.4,0.1-3.8,1.8-3.8,2.5c0.6,6.5,1.6,13,2.6,20.2c5.3,29.3,13.9,57.4,27.4,84.8c3.6,6.7,6.8,13.6,10.9,19.9
	c6.7,10.5,7,10.3,16.5,0.3c1.8-1.7,3.7-3.5,6.2-5.5c2.4-1.8,4.8-3.5,7.8-5.5c2.2-1.6,4.3-3.1,7.1-5c25.1-14.8,51.9-25.1,81.2-28.3
	c-0.1-1.3-0.1-2.3-0.3-3.3c-2.7-13.2-5.4-26.4-8-39.7c-1.2-6.1-1.9-12.3-2.7-19.3c-0.1-1.1-0.1-2.1-0.1-4
	C515.7,577,515.4,575.5,515.2,574.1 M697.7,699.8c0,0.7,0,1.4-0.4,2.7c-0.1,0.9-0.1,1.8-0.3,3.7c0,17,0,34-0.1,51.9
	c0.3,2.4,0.6,4.8,0.8,7.9c-0.1,0.5-0.1,0.9-0.6,2c0,7.3,0,14.6,0,21.9c0.5,0.2,1.1,0.4,1.6,0.6c1.8-1.7,3.9-3.2,5.5-5.1
	c5.4-6.2,10.6-12.5,16.5-19.1c3.2-4,6.5-7.9,9.5-12c1.3-1.8,1.8-4,3-6.7c3.5-5,7-10,11.1-15.4c3.5-5.4,7.1-10.8,7.7-16.5
	c-6.2-2.3-11.6-3.7-16.4-6.3c-7.3-3.8-14.1-8.5-21.3-12.6c-4.3-2.4-8.8-4.5-13.3-6.3c-3.8-1.5-4.4,0.5-3.7,4.3
	c0.1,1.1,0.3,2.2,0.5,3.7C697.8,698.7,697.8,699.1,697.7,699.8 M734,368.2c0,0,0.1,0,0.8-0.1c3.7-1.6,7.5-3.2,11.7-4.3
	c2.1-0.3,4.1-0.6,6.4-0.9c-12.1-32.8-32.4-58.7-55.2-83c-0.8,34.3-0.9,68.3-0.8,102.2c0,1,0.8,1.9,1.8,2.9c0.4,0,0.8,0,1.9,0.1
	c0.8-0.3,1.6-0.6,3.2-1c2.7-1.1,5.6-1.9,8.2-3.3c7.1-3.8,14-7.9,21.5-11.8C733.8,368.8,734,368.6,734,368.2 M557.9,570.1
	c0.2,3.4,0.3,6.7,0.4,10.7c0.1,0.4,0.2,0.8,0.2,1.9c0.1,0.2,0.1,0.4-0.1,1.2c0,0.4,0.1,0.8-0.1,1.9c0.2,0.9,0.4,1.7,0.7,3.4
	c0.9,5.7,1.9,11.4,2.9,17.7c0.1,0.4,0.2,0.9,0.1,2.1c0.4,1.8,0.7,3.5,1.1,5.3c1.9,8.3,3.9,16.7,5.9,24.9c0,0-0.1,0.1,0,0.9
	c0,4,1.9,5.2,5.9,5.2c25.4-0.2,50.9-0.2,76.3-0.2c1.5,0,2.9-0.2,4.6-0.3c0-23,0-45.8,0.2-69c0-0.2,0-0.3,0.1-1.4c0-4.2,0-8.4,0-13.5
	c-7.6,0.5-14.3,1-21.8,1.1c-1.8-0.2-3.6-0.6-5.4-0.6c-21.8,0-43.5,0-65.3,0C556.7,561.2,556,562.2,557.9,570.1 M762.6,684.4
	c2.2-3.1,5.1-6,6.6-9.4c2.6-6-1-11.4-3.6-16.4c-3.4-6.7-7.1-12.8-15.7-15.1c-13.4-3.6-24.9-19.5-17.3-37.4
	c5.8-13.6,22.4-21,37.1-13.7c9.5,4.7,13.7,13.4,16.4,23.2c1.8,6.6,5.9,11.8,12.5,13.8c9.8,3.1,19.8,5.7,29.8,8.2
	c31.9,8.1,61.8,20.7,88,41c6.9,5.3,13.5,11.1,20.1,16.6c24.8-41.1,40-85.1,42.9-133.7c-2.1,0-3.9,0-5.7,0c-28,0-56,0.2-84-0.2
	c-5.6-0.1-7.8,2-9.4,6.7c-10.6,31.5-53.2,39.7-74.8,18.1c-7-7.1-12.1-15.2-14.8-24.2c-31.5,0-62.4,0-93.6,0c0,16.8,0,33.1,0,49.4
	c0,10,0,20,0.2,30c0,1.2,1.4,3.3,2.4,3.4c12.8,1.7,23,7.4,29.5,19c2.7,4.8,5,9.8,8.1,14.3C743.4,686.8,752.4,689.2,762.6,684.4
	 M796.2,356.6c5.9,15.3,10.8,30.9,11.5,47.8c2-0.3,3.4-0.5,4.9-0.8c36.3-8.6,68.1-25.7,95.5-51c4.9-4.5,5-4.7,1-10.1
	c-0.6-0.8-1.2-1.6-1.8-2.4c-18.7-23.3-41.5-42.2-66-59c-38.7-26.5-81.5-42.7-127.3-51.6c-2.7-0.5-5.6-0.6-8.3-1
	c-0.2,0.5-0.4,1-0.6,1.4c1.1,0.8,2.2,1.5,3.2,2.4c21.1,18.1,39,39,54.8,61.8C776.4,313.3,787.2,334,796.2,356.6 M858.9,778.6
	c19-14.7,36-31.6,52.9-50.1c-2-1.6-3.6-2.6-5-3.8c-20.4-18-43.2-32.1-68.8-41.2c-8.7-3.1-17.7-5.3-26.6-7.9c-2.5-0.7-4-0.1-4.3,2.9
	c-2.9,24.9-12.1,47.7-24.2,69.4c-18.7,33.3-43,62.1-71.7,87.2c-1.9,1.7-4,3-6,4.6c3.8,0.8,6.5,0.8,9,0.4c2.7-0.4,5.4-1.4,8.1-1.9
	c27.4-4.5,53.5-13.4,78.8-24.6C821.7,804.5,840.2,792.1,858.9,778.6z"/>
<path class="st1" d="M988.2,521.6c-0.3-0.8-0.5-2-0.4-3.4C988.2,519.1,988.2,520.1,988.2,521.6z"/>
<path class="st1" d="M988.1,504.6c-0.4-0.6-0.7-1.5-1-2.9C987.5,502.3,987.9,503.2,988.1,504.6z"/>
</svg>
